<?xml version="1.0" encoding="utf-8"?>
<!-- Generator: Adobe Illustrator 16.0.0, SVG Export Plug-In . SVG Version: 6.00 Build 0)  -->
<!DOCTYPE svg PUBLIC "-//W3C//DTD SVG 1.1//EN" "http://www.w3.org/Graphics/SVG/1.1/DTD/svg11.dtd">
<svg version="1.1" xmlns="http://www.w3.org/2000/svg" xmlns:xlink="http://www.w3.org/1999/xlink" x="0px" y="0px" width="1024px"
	 height="768px" viewBox="0 0 1024 768" enable-background="new 0 0 1024 768" xml:space="preserve">
<g id="island">
	<linearGradient id="SVGID_1_" gradientUnits="userSpaceOnUse" x1="209.6284" y1="361.5938" x2="771.5986" y2="361.5938">
		<stop  offset="0" style="stop-color:#FFFFFF"/>
		<stop  offset="1" style="stop-color:#828282"/>
	</linearGradient>
	<path fill="url(#SVGID_1_)" d="M254.062,260.946c2.892-1.348,3.894-6.146,5.882-9.265c9.831-15.417,28.215-26.75,40.851-39.792
		c17.701-18.269,36.492-35.957,57.956-49.814c11.847-7.649,28.714-17.346,43.353-16.712c69.801,3.023,148.459,41.138,191.644,96.584
		c11.169,14.34,17.527,31.088,27.657,46.037c7.666,11.312,16.082,22.072,24.665,32.704c9.676,11.984,20.256,21.686,33.616,29.313
		c13.927,7.95,28.134,10.592,43.118,15.639c19.332,6.512,31.149,28.46,37.53,46.794c7.025,20.188,9.304,41.926,10.505,63.146
		c0.974,17.201,2.169,35.808-4.553,52.049c-6.341,15.32-18.244,26.508-33.639,32.652c-28.075,11.207-60.922,15.53-90.886,16.102
		c-14.769,0.281-58.191,6.687-68.318-9.646c-4.632-7.468-1.396-20.833,1.819-28.109c7.577-17.139,17.899-33.946,32.387-45.983
		c7.936-6.595,16.442-10.477,19.972-20.448c6.207-17.536-12.194-25.389-27.664-27.575c-21.133-2.987-46.339-2.587-67.578-0.558
		c-18.447,1.763-29.145,11.609-40.317,25.62c-12.797,16.048-19.371,36.566-33.673,51.432
		c-16.396,17.042-39.663,29.652-63.123,32.112c-27.666,2.901-60.314,5.229-87.42-1.656c-16.294-4.14-42.639-12.319-50.9-29.147
		c-8.295-16.896-7.967-47.681,5.619-61.691c14.13-14.572,35.342-18.293,54.223-21.596c40.54-7.091,94.085-12.076,120.584-47.913
		c12.581-17.015,16.83-46.032-2.872-58.723c-20.546-13.235-46.408-13.699-69.527-8.281c-41.667,9.763-82.04,17.339-124.938,17.346
		c-14.561,0.002-36.499-4.599-28.822-24.169c4.471-11.397,21.899-20.222,29.436-28.696c8.152-9.166,14.537-15.852,14.963-28.53"/>
</g>
<g id="centre">
	<path fill="#666666" d="M376.542,169.473c-1.413,4.07-9.928,6.257-14.722,7.939c-1.82,4.896-8.275,6.43-12.475,9.272
		c-4.615,3.123-10.11,8.571-13.694,13.018c-3.91,4.852-5.655,10.833-9.328,15.929c-4.23,5.869-9.63,8.529-14.126,14.51
		c-14.422,19.187-3.431,42.694,18.248,47.744c20.708,4.823,44.068,2.157,65.289,4.553c19.193,2.167,44.444,10.434,56.173,26.37
		c18.117,24.617,8.989,59.935,4.538,87.118c-1.937,11.827-6.606,22.406-16.619,29.388c-14.335,9.995-30.067,17.358-45.002,26.232
		c-8.906,5.292-17.61,11.854-27.622,15.634c-13.497,5.095-29.871,5.769-41.691,14.886c-8.705,6.715-3.175,10.983,6.017,12.798
		c12.037,2.376,25.766,2.522,37.911,1.451c10.623-0.938,20.349-2.43,29.546-7.567c10.991-6.14,24.236-8.453,34.542-14.923
		c11.624-7.298,22.229-16.557,34.024-23.692c9.245-5.593,19.187-15.229,29.204-19.493c9.102-3.874,20.676-2.954,30.305-3.03
		c10.678-0.084,19.917-4.247,30.407-4.688c17.452-0.734,32.47,2.792,49.562,6.288c8.047,1.646,15.37,3.245,21.844,8.962
		c11.343,10.019,12.956,31.547,11.405,45.474c-1.036,9.296-5.882,22.277,0.586,30.145c7.467,9.082,28.391,6.005,38.294,3.181
		c26.665-7.605,43.17-39.087,45.443-65.052c6.571-75.033-102.208-53.501-136.254-97.755c-8.049-10.463-9.773-22.954-14.229-35.165
		c-5.855-16.048-13.406-31.346-19.33-47.341c-5.245-14.162-11.498-27.016-21.734-38.426c-5.125-5.712-11.909-8.474-17.226-13.77
		c-6.005-5.981-10.833-8.636-18.836-11.524c-13.509-4.876-26.7-12.215-39.782-18.286c-12.915-5.994-25.798-10.322-39.13-14.163
		c-7.258-2.092-15.188-2.511-22.352-4.273c-5.328-1.311-10.42-3.29-16.086-2.516"/>
</g>
<g id="data-nodes">
	<circle fill="#FF3131" stroke="#FFFFFF" stroke-miterlimit="10" cx="666.384" cy="493.895" r="13.257"/>
	<circle fill="#FF3131" stroke="#FFFFFF" stroke-miterlimit="10" cx="369.486" cy="471.803" r="13.257"/>
	<circle fill="#FF3131" stroke="#FFFFFF" stroke-miterlimit="10" cx="634.783" cy="386.688" r="13.257"/>
	<circle fill="#FF3131" stroke="#FFFFFF" stroke-miterlimit="10" cx="472.586" cy="264.826" r="13.257"/>
	<circle fill="#FF3131" stroke="#FFFFFF" stroke-miterlimit="10" cx="528.538" cy="370.742" r="13.257"/>
</g>
<g id="data-mastery">
	<circle fill="#FF31FF" stroke="#FFFFFF" stroke-miterlimit="10" cx="372.657" cy="211.178" r="13.257"/>
</g>
<g id="data-label">
	<line fill="none" stroke="#000000" stroke-miterlimit="10" x1="583.791" y1="155.904" x2="735.514" y2="325.241"/>
</g>
</svg>
