<?xml version="1.0" encoding="utf-8"?>
<!-- Generator: Adobe Illustrator 16.0.0, SVG Export Plug-In . SVG Version: 6.00 Build 0)  -->
<!DOCTYPE svg PUBLIC "-//W3C//DTD SVG 1.1//EN" "http://www.w3.org/Graphics/SVG/1.1/DTD/svg11.dtd">
<svg version="1.1" xmlns="http://www.w3.org/2000/svg" xmlns:xlink="http://www.w3.org/1999/xlink" x="0px" y="0px" width="1024px"
	 height="768px" viewBox="0 0 1024 768" enable-background="new 0 0 1024 768" xml:space="preserve">
<g id="island">
	<linearGradient id="SVGID_1_" gradientUnits="userSpaceOnUse" x1="375.7275" y1="335.1846" x2="666.6631" y2="335.1846">
		<stop  offset="0" style="stop-color:#FFFFFF"/>
		<stop  offset="1" style="stop-color:#828282"/>
	</linearGradient>
	<path fill="url(#SVGID_1_)" d="M571,287c-43.323,3.871-86.25,18.173-124.361,38.087c-20.441,10.681-64.133,30.553-70.912,56.024
		c6.45,2.869,16.897,2.495,23.308,2.738c29.495,1.117,60.393,2.258,89.771-0.49c51.755-4.842,102.54-22.401,147.266-48.412
		c27.821-16.18,48.962-40.779,6.573-48.121C618.21,282.593,594.871,288.731,571,287"/>
</g>
<g id="centre">
	<path fill="#808080" d="M568.729,296.937c-34.389,3.073-68.462,14.426-98.713,30.232c-16.226,8.478-50.907,24.252-56.288,44.47
		c5.12,2.277,13.413,1.98,18.501,2.173c23.412,0.887,47.938,1.792,71.257-0.389c41.081-3.843,81.394-17.781,116.895-38.428
		c22.084-12.843,38.865-32.369,5.218-38.197C606.202,293.439,587.677,298.311,568.729,296.937"/>
</g>
<g id="data-nodes">
	<circle fill="#FF3131" stroke="#FFFFFF" stroke-miterlimit="10" cx="477.743" cy="352.98" r="13.257"/>
</g>
<g id="data-mastery">
	<circle fill="#FF31FF" stroke="#FFFFFF" stroke-miterlimit="10" cx="607.048" cy="315" r="13.257"/>
</g>
<g id="data-label">
	<path fill="none" stroke="#000000" stroke-miterlimit="10" d="M806.969,638.317"/>
	<path fill="none" stroke="#000000" stroke-miterlimit="10" d="M593.791,625.14"/>
	<line fill="none" stroke="#000000" stroke-miterlimit="10" x1="491" y1="431" x2="637" y2="384"/>
</g>
</svg>
