<?xml version="1.0" encoding="utf-8"?>
<!-- Generator: Adobe Illustrator 16.0.0, SVG Export Plug-In . SVG Version: 6.00 Build 0)  -->
<!DOCTYPE svg PUBLIC "-//W3C//DTD SVG 1.1//EN" "http://www.w3.org/Graphics/SVG/1.1/DTD/svg11.dtd">
<svg version="1.1" xmlns="http://www.w3.org/2000/svg" xmlns:xlink="http://www.w3.org/1999/xlink" x="0px" y="0px" width="1024px"
	 height="768px" viewBox="0 0 1024 768" enable-background="new 0 0 1024 768" xml:space="preserve">
<g id="island">
	<linearGradient id="SVGID_1_" gradientUnits="userSpaceOnUse" x1="393.4155" y1="353.6816" x2="701.8896" y2="353.6816">
		<stop  offset="0" style="stop-color:#FFFFFF"/>
		<stop  offset="1" style="stop-color:#828282"/>
	</linearGradient>
	<path fill="url(#SVGID_1_)" d="M494,243c-0.726,8.449-3.229,16.663-6.798,24.344c-9.677,20.827-22.836,42.925-36.232,61.51
		c-19.505,27.062-52.147,59.041-57.01,93.244c-1.981,13.937,1.204,20.649,13.522,26.396c37.45,17.469,89.892,21.17,130.784,16.576
		c8.434-0.947,10.939-0.469,13.757-7.026c4.826-11.237-1.33-32.393-0.095-44.361c0.797-7.719,2.352-15.026,10.085-17.755
		c7.687-2.712,22.97-0.127,30.674,0.667c23.112,2.384,46.409,6.416,69.762,5.455c32.526-1.339,37.388-25.153,39.161-53.052
		c1.944-30.581-6.087-56.083-29.738-76.741c-22.968-20.061-47.021-22.683-76.123-27.003c-18.646-2.768-35.327-6.329-54.171-4.032
		C530.79,242.538,500.71,239.026,493,249"/>
</g>
<g id="centre">
	<path fill="#808080" d="M544,270c-17.857-0.406-30.99,0.556-41.5,15.454c-12.079,17.123-16.427,38.809-27.258,57.078
		c-10.825,18.259-59.075,45.596-45.265,71.667c4.774,9.013,18.12,12.865,27.249,16.604c12.322,5.045,27.509,5.362,40.771,5.197
		c10.204-0.127,24.048-0.108,27.856-11.754c4.125-12.618-3.998-29.116,4.9-41.077c5.972-8.028,15.702-5.071,25.302-4.142
		c12.965,1.253,26.229,0.637,39.387,1.196c20.678,0.878,72.785,10.193,79.61-15.274c5.352-19.971,2.196-45.862-10.307-61.893
		c-13.921-17.851-35.455-21.481-56.741-27.11C589.607,271.08,565.512,271.068,546,271"/>
</g>
<g id="data-nodes">
	<circle fill="#FF3131" stroke="#FFFFFF" stroke-miterlimit="10" cx="498.743" cy="415.049" r="13.257"/>
	<circle fill="#FF3131" stroke="#FFFFFF" stroke-miterlimit="10" cx="646.297" cy="352.98" r="13.257"/>
</g>
<g id="data-mastery">
	<circle fill="#FF31FF" stroke="#FFFFFF" stroke-miterlimit="10" cx="534.396" cy="293" r="13.257"/>
</g>
<g id="data-label">
	<path fill="none" stroke="#000000" stroke-miterlimit="10" d="M806.969,638.317"/>
	<path fill="none" stroke="#000000" stroke-miterlimit="10" d="M593.791,625.14"/>
	<line fill="none" stroke="#000000" stroke-miterlimit="10" x1="342" y1="384" x2="442" y2="234"/>
</g>
</svg>
