<?xml version="1.0" encoding="utf-8"?>
<!-- Generator: Adobe Illustrator 16.0.0, SVG Export Plug-In . SVG Version: 6.00 Build 0)  -->
<!DOCTYPE svg PUBLIC "-//W3C//DTD SVG 1.1//EN" "http://www.w3.org/Graphics/SVG/1.1/DTD/svg11.dtd">
<svg version="1.1" xmlns="http://www.w3.org/2000/svg" xmlns:xlink="http://www.w3.org/1999/xlink" x="0px" y="0px" width="1024px"
	 height="768px" viewBox="0 0 1024 768" enable-background="new 0 0 1024 768" xml:space="preserve">
<g id="island">
	<g>
		<image overflow="visible" width="487" height="410" xlink:href="91952431E8CD25F.png"  transform="matrix(1 0 0 1 274 160)">
		</image>
	</g>
</g>
<g id="centre">
	<g>
		<image overflow="visible" width="357" height="338" xlink:href="91952431E8CD25D.png"  transform="matrix(1 0 0 1 318 196)">
		</image>
	</g>
</g>
<g id="data-nodes">
	<circle fill="#FF3131" stroke="#FFFFFF" stroke-miterlimit="10" cx="485.485" cy="451.975" r="13.257"/>
	<circle fill="#FF3131" stroke="#FFFFFF" stroke-miterlimit="10" cx="593.792" cy="413.98" r="13.257"/>
	<circle fill="#FF3131" stroke="#FFFFFF" stroke-miterlimit="10" cx="409" cy="378.375" r="13.257"/>
</g>
<g id="data-mastery">
	<circle fill="#FF31FF" stroke="#FFFFFF" stroke-miterlimit="10" cx="485.485" cy="266.485" r="13.257"/>
</g>
<g id="data-label">
	<path fill="none" stroke="#000000" stroke-miterlimit="10" d="M806.969,638.317"/>
	<path fill="none" stroke="#000000" stroke-miterlimit="10" d="M593.791,625.14"/>
	<line fill="none" stroke="#000000" stroke-miterlimit="10" x1="480.238" y1="586.246" x2="705" y2="508.418"/>
</g>
<g id="data-features">
	<circle fill="#E9FF45" cx="554" cy="413.981" r="67.303"/>
	<circle fill="#E9FF45" cx="480.239" cy="464.151" r="37.556"/>
	<circle fill="#E9FF45" cx="450" cy="396" r="48.743"/>
	<circle fill="#E9FF45" cx="480.238" cy="357.785" r="30.238"/>
	<circle fill="#E9FF45" cx="409" cy="313" r="52"/>
	<circle fill="#E9FF45" cx="472.229" cy="266.485" r="31.515"/>
	<circle fill="#E9FF45" cx="512" cy="253.228" r="18.742"/>
</g>
</svg>
