<?xml version="1.0" encoding="utf-8"?>
<!-- Generator: Adobe Illustrator 16.0.0, SVG Export Plug-In . SVG Version: 6.00 Build 0)  -->
<!DOCTYPE svg PUBLIC "-//W3C//DTD SVG 1.1//EN" "http://www.w3.org/Graphics/SVG/1.1/DTD/svg11.dtd">
<svg version="1.1" xmlns="http://www.w3.org/2000/svg" xmlns:xlink="http://www.w3.org/1999/xlink" x="0px" y="0px" width="1024px"
	 height="768px" viewBox="0 0 1024 768" enable-background="new 0 0 1024 768" xml:space="preserve">
<g id="island">
	<g>
		<image overflow="visible" width="643" height="514" xlink:href="5EFDC83F8F0C03D9.png"  transform="matrix(1 0 0 1 173 109)">
		</image>
	</g>
</g>
<g id="centre">
	<g>
		<image overflow="visible" width="484" height="422" xlink:href="5EFDC83F8F0C03DB.png"  transform="matrix(1 0 0 1 276 132)">
		</image>
	</g>
</g>
<g id="data-nodes">
	<circle fill="#FF3131" stroke="#FFFFFF" stroke-miterlimit="10" cx="666.384" cy="493.895" r="13.257"/>
	<circle fill="#FF3131" stroke="#FFFFFF" stroke-miterlimit="10" cx="369.486" cy="471.803" r="13.257"/>
	<circle fill="#FF3131" stroke="#FFFFFF" stroke-miterlimit="10" cx="634.783" cy="386.688" r="13.257"/>
	<circle fill="#FF3131" stroke="#FFFFFF" stroke-miterlimit="10" cx="472.586" cy="264.826" r="13.257"/>
	<circle fill="#FF3131" stroke="#FFFFFF" stroke-miterlimit="10" cx="528.538" cy="370.742" r="13.257"/>
</g>
<g id="data-mastery">
	<circle fill="#FF31FF" stroke="#FFFFFF" stroke-miterlimit="10" cx="372.657" cy="211.178" r="13.257"/>
</g>
<g id="data-label">
	<line fill="none" stroke="#000000" stroke-miterlimit="10" x1="367.931" y1="611.495" x2="600" y2="624.703"/>
</g>
<g id="data-features">
	<circle fill="#F6FF00" stroke="#000000" stroke-miterlimit="10" cx="382.744" cy="224.436" r="54.256"/>
	<circle fill="#F6FF00" stroke="#000000" stroke-miterlimit="10" cx="472.586" cy="274" r="50.414"/>
	<circle fill="#F6FF00" stroke="#000000" stroke-miterlimit="10" cx="540.919" cy="366.004" r="69.081"/>
	<circle fill="#F6FF00" stroke="#000000" stroke-miterlimit="10" cx="666.384" cy="444" r="61.616"/>
	<circle fill="#F6FF00" stroke="#000000" stroke-miterlimit="10" cx="604.769" cy="406" r="35.231"/>
	<circle fill="#F6FF00" stroke="#000000" stroke-miterlimit="10" cx="447" cy="435.085" r="36.966"/>
	<circle fill="#F6FF00" stroke="#000000" stroke-miterlimit="10" cx="396" cy="458.545" r="34.451"/>
	<circle fill="#F6FF00" stroke="#000000" stroke-miterlimit="10" cx="483.965" cy="410" r="34.033"/>
	<circle fill="#F6FF00" stroke="#000000" stroke-miterlimit="10" cx="536" cy="278.083" r="20.813"/>
	<circle fill="#F6FF00" stroke="#000000" stroke-miterlimit="10" cx="449.933" cy="206" r="30"/>
	<circle fill="#F6FF00" stroke="#000000" stroke-miterlimit="10" cx="410.034" cy="278.692" r="26.966"/>
</g>
</svg>
