<?xml version="1.0" encoding="utf-8"?>
<!-- Generator: Adobe Illustrator 16.0.0, SVG Export Plug-In . SVG Version: 6.00 Build 0)  -->
<!DOCTYPE svg PUBLIC "-//W3C//DTD SVG 1.1//EN" "http://www.w3.org/Graphics/SVG/1.1/DTD/svg11.dtd">
<svg version="1.1" xmlns="http://www.w3.org/2000/svg" xmlns:xlink="http://www.w3.org/1999/xlink" x="0px" y="0px" width="1024px"
	 height="768px" viewBox="0 0 1024 768" enable-background="new 0 0 1024 768" xml:space="preserve">
<g id="island">
	<linearGradient id="SVGID_1_" gradientUnits="userSpaceOnUse" x1="318.6533" y1="330.9805" x2="883.5869" y2="330.9805">
		<stop  offset="0" style="stop-color:#FFFFFF"/>
		<stop  offset="1" style="stop-color:#828282"/>
	</linearGradient>
	<path fill="url(#SVGID_1_)" d="M781.388,442.193c-12.397-8.377-24.48-16.233-31.278-31.462
		c-6.549-14.672-9.266-30.747-13.358-46.268c-8.899-33.752-9.909-67.704-12.383-102.298c-2.773-38.79,0.857-75.857,3.666-114.435
		c1.346-18.479,10.793-37.531,9.942-55.982c-0.449-9.748-5.24-14.406-14.631-16.218c-38.536-7.435-41.128,42.45-61.866,63.599
		c-14.751,15.044-46.345,22.994-66.245,26.087c-27.878,4.334-55.649,9.34-83.619,12.65c-24.329,2.879-50.027,8.239-72.25,18.74
		c-37.719,17.824-74.398,42.208-103.762,71.959c-14.801,14.997-19.702,35.564-15.512,56.974
		c3.773,19.278,29.259,20.225,41.219,33.198c13.639,14.794,17.204,38.671,19.18,57.897c2.314,22.517,3.021,45.201-1.237,67.438
		c-2.607,13.613-7.133,26.463-13.177,38.746c-3.696,7.512-9.208,13.588-12.026,21.555c-13.09,37.005,50.393,36.834,71.532,38.128
		c26.186,1.604,56.797-2.163,78.272-19.094c21.222-16.73,29.432-44.612,30.884-70.528c0.354-6.334,0.844-29.424,10.95-19.561
		c4.223,4.121,3.946,11.74,4.651,17.015c1.722,12.879,1.108,25.871,2.594,38.878c1.168,10.219,1.876,23.962,8.399,32.166
		c12.671,15.937,50.879,14.629,67.905,17.438c37.1,6.123,75.016,7.255,112.647,8.232c42.66,1.108,91.779-4.192,120.723-38.735
		c15.95-19.035,31.585-60.783,11.458-83.027c-9.303-10.28-26.719-11.014-39.652-12.844c-9.648-1.365-17.561-4.391-26.722-6.784
		c-8.169-2.134-15.504-3.435-23.979-3.464"/>
</g>
<g id="centre">
	<path fill="#666666" d="M470.535,214.287c15.37-14.562,40.482-7.429,50.542-9.259c29.897-5.441,61.656-6.295,90.701-15.316
		c10.812-3.358,22.013-8.214,32.186-12.806c9.559-4.314,12.37-5.873,14.927,4.841c9.63,40.353-10.323,85.775-15.674,125.911
		c-6.574,49.312-12.56,115.813,44.339,136.649c22.389,8.199,46.781,14.784,68.532,24.456c7.956,3.539,14.124,8.465,22.321,11.424
		c12.748,4.602,21.109,11.858,29.39,22.887c4.012,5.342,6.083,12.195,4.538,19.044c-3.79,16.807-15.386,20.871-30.629,23.909
		c-29.158,5.812-59.815,10.238-89.583,10.137c-23.825-0.082-46.241,1.935-68.234-8.696c-23.617-11.415-30.113-24.483-33.78-49.327
		c-1.496-10.135-4.018-17.965-9.749-26.488c-5.979-8.892-8.879-14.01-19.843-16.083c-8.973-1.697-16.39-2.06-23.32,2.717
		c-9.075,6.253-10.535,13.354-13.673,23.096c-5.526,17.155-10.68,46.539-29.684,53.836c-12.754,4.897-29.742,8.564-43.46,9.32
		c-14.265,0.787-30.834,2.987-44.933,1.395c-8.667-25.582,4.263-55.664,8.499-80.895c7.428-44.248,6.853-101.923-38.837-125.151
		c-14.466-7.355-20.104-9.681-20.078-27.187c0.009-6.235-0.579-11.62,2.448-17.214c7.102-13.126,22.155-24.651,33.125-34.371
		c5.005-4.435,9.967-10.199,15.764-13.531c9.014-5.182,20.672-6.061,30.158-10.686c9.101-4.437,15.8-5.047,23.148-11.757
		C461.456,223.514,468.829,215.825,470.535,214.287"/>
</g>
<g id="data-nodes">
	<circle fill="#FF3131" stroke="#FFFFFF" stroke-miterlimit="10" cx="770.26" cy="514.049" r="13.257"/>
	<circle fill="#FF3131" stroke="#FFFFFF" stroke-miterlimit="10" cx="434.603" cy="507.152" r="13.257"/>
	<circle fill="#FF3131" stroke="#FFFFFF" stroke-miterlimit="10" cx="648.04" cy="520.408" r="13.257"/>
	<circle fill="#FF3131" stroke="#FFFFFF" stroke-miterlimit="10" cx="400.493" cy="302.81" r="13.257"/>
	<circle fill="#FF3131" stroke="#FFFFFF" stroke-miterlimit="10" cx="541.795" cy="413.202" r="13.257"/>
	<circle fill="#FF3131" stroke="#FFFFFF" stroke-miterlimit="10" cx="498.743" cy="251.578" r="13.257"/>
</g>
<g id="data-mastery">
	<circle fill="#FF31FF" stroke="#FFFFFF" stroke-miterlimit="10" cx="621.525" cy="218.154" r="13.257"/>
</g>
<g id="data-label">
	<line fill="none" stroke="#000000" stroke-miterlimit="10" x1="593.791" y1="625.14" x2="806.969" y2="638.317"/>
</g>
</svg>
