<?xml version="1.0" encoding="utf-8"?>
<!-- Generator: Adobe Illustrator 16.0.0, SVG Export Plug-In . SVG Version: 6.00 Build 0)  -->
<!DOCTYPE svg PUBLIC "-//W3C//DTD SVG 1.1//EN" "http://www.w3.org/Graphics/SVG/1.1/DTD/svg11.dtd">
<svg version="1.1" xmlns="http://www.w3.org/2000/svg" xmlns:xlink="http://www.w3.org/1999/xlink" x="0px" y="0px" width="1024px"
	 height="768px" viewBox="0 0 1024 768" enable-background="new 0 0 1024 768" xml:space="preserve">
<g id="island">
	<linearGradient id="SVGID_1_" gradientUnits="userSpaceOnUse" x1="26.9839" y1="360.9082" x2="940.2314" y2="360.9082">
		<stop  offset="0" style="stop-color:#FFFFFF"/>
		<stop  offset="1" style="stop-color:#828282"/>
	</linearGradient>
	<path fill="url(#SVGID_1_)" d="M191,506c8.193-4.784,24.985-3.189,34.604-3.219c46.412-0.144,87.995,18.479,127.523,41.591
		c28.136,16.451,48.988,42.385,78.204,57.892c23.032,12.225,53.612,33.579,80.668,31.858c0.883-17.002,1.882-33.906,0.057-50.92
		c-4.917-45.827-25.267-88.312-26.988-134.5c-0.399-10.711-5.147-34.662,5.021-42.544c11.512-8.924,38.829-0.623,49.661,4.338
		c42.078,19.271,79.255,54.444,86.684,101.952c7.027,44.941,7.265,93.945,6.484,139.382c34.561-3.798,67.678-8.418,102.755-9.042
		c55.207-0.982,110.346-1.677,165.557-1.756c2.96-24.789,15.473-46.588,20.966-71.183c13.958-62.505,18.756-122.699,17.952-186.65
		c-0.627-49.845-13.959-99.448-28.9-146.701c-10.989-34.751-21.354-67.275-45.34-95.119
		c-33.646-39.056-84.232-47.059-133.582-34.593c-37.633,9.506-67.044,50.55-83.876,83.333
		c-11.881,23.142-23.93,46.492-35.502,69.785c-12.533,25.228-18.583,53.511-32.156,78.233c-5.703,10.386-9.606,13.997-22.614,10.954
		c-32.838-7.682-38.294-40.029-40.19-68.436c-3.522-52.771-7.204-103.703,3.109-155.792c6.669-33.686,3.31-37.197-31.428-41.633
		c-40.997-5.236-79.59-13.346-121.372-13.242C309.453,70.134,252.883,80.416,196.4,96.927
		c-42.958,12.558-95.194,25.7-127.602,58.958C42.277,183.101,27.002,230.812,26.984,268c-0.025,51.063,9.093,97.09,43.431,136.833
		c13.978,16.178,29.467,29.175,48.331,39.258c16.983,9.078,34.761,15.899,49.248,29.028c9.761,8.847,8.466,35.556,26.007,32.881"/>
</g>
<g id="centre">
	<path fill="#808080" d="M66,248c0-26.969-0.905-46.283,21.731-63.536c17.712-13.5,35.199-26.076,56.395-33.487
		c32.566-11.388,66.338-15.832,99.915-23.153c38.834-8.468,76.431-17.484,116.256-19.898c14.249-0.864,28.958,0.045,43.242,0.075
		c14.883,0.031,41.872-6.923,55.62-0.294c20.379,9.826,13.338,60.716,9.868,78.772c-2.445,12.718-5.295,26.889-10.975,38.55
		c-6.499,13.341-18.527,23.088-26.71,35.824c-6.371,9.915-11.637,21.302-10.338,33.315c1.269,11.736,5.809,21.154,0.723,32.829
		c-7.807,17.92-22.285,32.03-27.516,51.582c-6.671,24.934-3.323,38.479,6.009,61.096c18.713,45.354,64.448,81.396,59.626,134.168
		c-5.618,0.464-9.564-6.453-13.419-9.863c-14.433-12.765-31.585-21.438-47.401-32.188c-24.934-16.948-50.634-32.373-76.052-48.357
		c-22.109-13.904-50.499-9.589-76.135-9.448c-14.814,0.08-27.431,3.598-39.639,9.98c-1.099-13.256-0.896-16.116-12.746-25.365
		c-13.526-10.558-22.724-23.665-35.562-35.067c-18.43-16.37-41.333-29.327-58.641-46.787
		c-13.342-13.458-18.668-22.007-20.466-40.251c-2.048-20.789-1.813-42.096-6.559-61.943C71.09,265.617,67.326,257.201,67,248"/>
	<path fill="#808080" d="M678,271c0.895-17.088,8.449-36.02,12.875-52.557c2.201-8.222,4.059-16.671,8.18-24.263
		c4.486-8.264,12.829-16.503,21.651-19.151c7.906-2.373,17.889-1.721,26.043-2.051c18.721-0.758,42.515-2.811,59.943,4.477
		c43.861,18.34,67.203,63.018,77.141,106.436c8.555,37.38,16.302,73.619,18.016,112.244c2.019,45.466,1.272,91.928-1.602,137.354
		c-1.474,23.303-5.994,48.166-13.97,69.544C881.177,616.704,875.031,614,860.25,614c-39.514,0-78.381-3.934-117.943-4
		c-34.103-0.057-46.307,4.217-80.307,0c-6-20-0.34-28.233,9.699-47.671c11.752-22.754,20.396-43.921,25.055-69.345
		c6.198-33.822-0.974-59.22-20.754-86.426c-9.014-12.397-7.077-22.044-3.249-36.329c3.494-13.04,5.349-26.62,5.272-40.294
		c-0.11-19.868-10.19-35.696-1.997-53.96c1.334-2.973,3.146-5.764,3.974-8.975"/>
</g>
<g id="data-nodes">
	<circle fill="#FF3131" stroke="#FFFFFF" stroke-miterlimit="10" cx="746.053" cy="549.049" r="13.257"/>
	<circle fill="#FF3131" stroke="#FFFFFF" stroke-miterlimit="10" cx="202" cy="379.913" r="13.257"/>
	<circle fill="#FF3131" stroke="#FFFFFF" stroke-miterlimit="10" cx="848.297" cy="393.17" r="13.257"/>
	<circle fill="#FF3131" stroke="#FFFFFF" stroke-miterlimit="10" cx="151.493" cy="218.81" r="13.257"/>
	<circle fill="#FF3131" stroke="#FFFFFF" stroke-miterlimit="10" cx="732.795" cy="240.202" r="13.257"/>
	<circle fill="#FF3131" stroke="#FFFFFF" stroke-miterlimit="10" cx="352.743" cy="449.578" r="13.257"/>
</g>
<g id="data-mastery">
	<circle fill="#FF31FF" stroke="#FFFFFF" stroke-miterlimit="10" cx="400.493" cy="153" r="13.257"/>
</g>
<g id="data-label">
	<path fill="none" stroke="#000000" stroke-miterlimit="10" d="M806.969,638.317"/>
	<path fill="none" stroke="#000000" stroke-miterlimit="10" d="M593.791,625.14"/>
	<line fill="none" stroke="#000000" stroke-miterlimit="10" x1="75" y1="529" x2="373" y2="691"/>
</g>
</svg>
