<?xml version="1.0" encoding="utf-8"?>
<!-- Generator: Adobe Illustrator 16.0.0, SVG Export Plug-In . SVG Version: 6.00 Build 0)  -->
<!DOCTYPE svg PUBLIC "-//W3C//DTD SVG 1.1//EN" "http://www.w3.org/Graphics/SVG/1.1/DTD/svg11.dtd">
<svg version="1.1" xmlns="http://www.w3.org/2000/svg" xmlns:xlink="http://www.w3.org/1999/xlink" x="0px" y="0px" width="1024px"
	 height="768px" viewBox="0 0 1024 768" enable-background="new 0 0 1024 768" xml:space="preserve">
<g id="island">
	<g>
		<image overflow="visible" width="638" height="586" xlink:href="B7506DA2A44761C5.png"  transform="matrix(1 0 0 1 282 38)">
		</image>
	</g>
</g>
<g id="centre">
	<g>
		<image overflow="visible" width="531" height="456" xlink:href="B7506DA2A44761CB.png"  transform="matrix(1 0 0 1 318 137)">
		</image>
	</g>
</g>
<g id="data-nodes" display="none">
	<circle display="inline" fill="#FF3131" stroke="#FFFFFF" stroke-miterlimit="10" cx="770.26" cy="514.049" r="13.257"/>
	<circle display="inline" fill="#FF3131" stroke="#FFFFFF" stroke-miterlimit="10" cx="434.603" cy="507.152" r="13.257"/>
	<circle display="inline" fill="#FF3131" stroke="#FFFFFF" stroke-miterlimit="10" cx="648.04" cy="520.408" r="13.257"/>
	<circle display="inline" fill="#FF3131" stroke="#FFFFFF" stroke-miterlimit="10" cx="400.493" cy="302.81" r="13.257"/>
	<circle display="inline" fill="#FF3131" stroke="#FFFFFF" stroke-miterlimit="10" cx="541.795" cy="413.202" r="13.257"/>
	<circle display="inline" fill="#FF3131" stroke="#FFFFFF" stroke-miterlimit="10" cx="498.743" cy="251.578" r="13.257"/>
</g>
<g id="data-mastery" display="none">
	<circle display="inline" fill="#FF31FF" stroke="#FFFFFF" stroke-miterlimit="10" cx="621.525" cy="218.154" r="13.257"/>
</g>
<g id="data-label" display="none">
	<line display="inline" fill="none" stroke="#000000" stroke-miterlimit="10" x1="593.791" y1="625.14" x2="806.969" y2="638.317"/>
</g>
<g id="data-features">
	<circle fill="#F7FF17" cx="624" cy="219" r="33.657"/>
	<circle fill="#F7FF17" cx="524" cy="327" r="114"/>
	<circle fill="#F7FF17" cx="464" cy="484" r="48"/>
	<circle fill="#F7FF17" cx="610" cy="441" r="41"/>
	<circle fill="#F7FF17" cx="672" cy="491" r="55"/>
	<circle fill="#F7FF17" cx="754" cy="515" r="40"/>
	<circle fill="#F7FF17" cx="401" cy="307" r="53"/>
	<circle fill="#F7FF17" cx="481" cy="436" r="64"/>
</g>
</svg>
