<?xml version="1.0" encoding="utf-8"?>
<!-- Generator: Adobe Illustrator 16.0.0, SVG Export Plug-In . SVG Version: 6.00 Build 0)  -->
<!DOCTYPE svg PUBLIC "-//W3C//DTD SVG 1.1//EN" "http://www.w3.org/Graphics/SVG/1.1/DTD/svg11.dtd">
<svg version="1.1" xmlns="http://www.w3.org/2000/svg" xmlns:xlink="http://www.w3.org/1999/xlink" x="0px" y="0px" width="1024px"
	 height="768px" viewBox="0 0 1024 768" enable-background="new 0 0 1024 768" xml:space="preserve">
<g id="Layer_7">
	
		<image overflow="visible" width="516" height="220" xlink:href="island exports/island6-2-s1.png"  transform="matrix(1 0 0 1 243.2178 244)">
	</image>
	<g display="none">
		<g display="inline">
			<defs>
				<rect id="SVGID_1_" x="271.874" y="239.069" width="480.248" height="289.859"/>
			</defs>
			<clipPath id="SVGID_2_">
				<use xlink:href="#SVGID_1_"  overflow="visible"/>
			</clipPath>
			<g clip-path="url(#SVGID_2_)">
				<defs>
					<rect id="SVGID_3_" x="50.141" y="41.56" width="933.542" height="700.157"/>
				</defs>
				<clipPath id="SVGID_4_">
					<use xlink:href="#SVGID_3_"  overflow="visible"/>
				</clipPath>
				<g clip-path="url(#SVGID_4_)">
					<defs>
						<rect id="SVGID_5_" x="281.703" y="291.355" width="470.418" height="200.565"/>
					</defs>
					<clipPath id="SVGID_6_">
						<use xlink:href="#SVGID_5_"  overflow="visible"/>
					</clipPath>
					<g clip-path="url(#SVGID_6_)">
						
							<image overflow="visible" width="516" height="220" xlink:href="D6019B572CB1C347.png"  transform="matrix(0.9117 0 0 0.9117 281.7031 291.3555)">
						</image>
					</g>
				</g>
				<g clip-path="url(#SVGID_4_)">
					<defs>
						<rect id="SVGID_7_" x="50.141" y="41.56" width="933.542" height="700.157"/>
					</defs>
					<clipPath id="SVGID_8_">
						<use xlink:href="#SVGID_7_"  overflow="visible"/>
					</clipPath>
					<path clip-path="url(#SVGID_8_)" fill="#FF3131" d="M691.039,415.809c0,6.676-5.411,12.087-12.085,12.087
						c-6.676,0-12.087-5.411-12.087-12.087c0-6.673,5.411-12.084,12.087-12.084C685.628,403.725,691.039,409.136,691.039,415.809"/>
					
						<circle clip-path="url(#SVGID_8_)" fill="none" stroke="#FFFFFF" stroke-miterlimit="10" cx="678.953" cy="415.809" r="12.086"/>
					<path clip-path="url(#SVGID_8_)" fill="#FF3131" d="M666.867,313.048c0,6.675-5.411,12.087-12.086,12.087
						c-6.676,0-12.087-5.412-12.087-12.087c0-6.673,5.411-12.085,12.087-12.085C661.456,300.963,666.867,306.375,666.867,313.048"/>
					
						<circle clip-path="url(#SVGID_8_)" fill="none" stroke="#FFFFFF" stroke-miterlimit="10" cx="654.781" cy="313.048" r="12.086"/>
					<path clip-path="url(#SVGID_8_)" fill="#FF3131" d="M519.168,415.809c0,6.676-5.41,12.087-12.085,12.087
						c-6.676,0-12.087-5.411-12.087-12.087c0-6.673,5.412-12.084,12.087-12.084C513.758,403.725,519.168,409.136,519.168,415.809"/>
					
						<circle clip-path="url(#SVGID_8_)" fill="none" stroke="#FFFFFF" stroke-miterlimit="10" cx="507.082" cy="415.809" r="12.086"/>
					<path clip-path="url(#SVGID_8_)" fill="#FF3131" d="M598.625,373.848c0,6.675-5.411,12.087-12.085,12.087
						c-6.675,0-12.087-5.412-12.087-12.087c0-6.673,5.412-12.085,12.087-12.085C593.214,361.763,598.625,367.174,598.625,373.848"/>
					
						<circle clip-path="url(#SVGID_8_)" fill="none" stroke="#FFFFFF" stroke-miterlimit="10" cx="586.539" cy="373.848" r="12.086"/>
					<path clip-path="url(#SVGID_8_)" fill="#FF3131" d="M448.501,366.554c0,6.676-5.412,12.087-12.085,12.087
						c-6.675,0-12.087-5.412-12.087-12.087c0-6.673,5.412-12.085,12.087-12.085C443.09,354.469,448.501,359.881,448.501,366.554"/>
					<path clip-path="url(#SVGID_8_)" fill="none" stroke="#FFFFFF" stroke-miterlimit="10" d="M448.501,366.554
						c0,6.676-5.412,12.087-12.085,12.087c-6.675,0-12.087-5.412-12.087-12.087c0-6.673,5.412-12.085,12.087-12.085
						C443.09,354.469,448.501,359.881,448.501,366.554z"/>
					<path clip-path="url(#SVGID_8_)" fill="#FF3131" d="M355.547,367.466c0,6.676-5.412,12.087-12.086,12.087
						c-6.675,0-12.087-5.412-12.087-12.087c0-6.673,5.412-12.084,12.087-12.084C350.135,355.381,355.547,360.793,355.547,367.466"/>
					<path clip-path="url(#SVGID_8_)" fill="none" stroke="#FFFFFF" stroke-miterlimit="10" d="M355.547,367.466
						c0,6.676-5.412,12.087-12.086,12.087c-6.675,0-12.087-5.412-12.087-12.087c0-6.673,5.412-12.084,12.087-12.084
						C350.135,355.381,355.547,360.793,355.547,367.466z"/>
				</g>
				<g clip-path="url(#SVGID_4_)">
					<defs>
						<rect id="SVGID_9_" x="50.141" y="41.56" width="933.542" height="700.157"/>
					</defs>
					<clipPath id="SVGID_10_">
						<use xlink:href="#SVGID_9_"  overflow="visible"/>
					</clipPath>
					<path clip-path="url(#SVGID_10_)" fill="#FF31FF" d="M531.255,288.877c0,6.675-5.411,12.087-12.085,12.087
						c-6.676,0-12.087-5.412-12.087-12.087c0-6.674,5.411-12.086,12.087-12.086C525.844,276.791,531.255,282.203,531.255,288.877"/>
					
						<circle clip-path="url(#SVGID_10_)" fill="none" stroke="#FFFFFF" stroke-miterlimit="10" cx="519.169" cy="288.877" r="12.086"/>
				</g>
				
					<line clip-path="url(#SVGID_4_)" fill="none" stroke="#000000" stroke-miterlimit="10" x1="494.996" y1="524.653" x2="634.772" y2="528.472"/>
				<g clip-path="url(#SVGID_4_)">
					<defs>
						<rect id="SVGID_11_" x="50.141" y="41.56" width="933.542" height="700.157"/>
					</defs>
					<clipPath id="SVGID_12_">
						<use xlink:href="#SVGID_11_"  overflow="visible"/>
					</clipPath>
				</g>
			</g>
		</g>
	</g>
</g>
<g id="data-features_1_" display="none">
	
		<image display="inline" overflow="visible" width="59" height="55" xlink:href="Crystal_Placeholder.png"  transform="matrix(1 0 0 1 328.25 209)">
	</image>
	
		<image display="inline" overflow="visible" width="319" height="235" xlink:href="Feature_Stage1_Size5_2.png"  transform="matrix(1.0247 0 0 1.0247 305.5586 130.1362)">
	</image>
	
		<image display="inline" overflow="visible" width="112" height="121" xlink:href="Mastery_Placeholder.png"  transform="matrix(1 0 0 1 480.2495 95)">
	</image>
	
		<image display="inline" overflow="visible" width="59" height="55" xlink:href="Crystal_Placeholder.png"  transform="matrix(1 0 0 1 497.7495 191.5396)">
	</image>
	
		<image display="inline" overflow="visible" width="162" height="130" xlink:href="Feature_Stage1_Size4_2.png"  transform="matrix(1 0 0 1 290.7495 249.04)">
	</image>
	
		<image display="inline" overflow="visible" width="162" height="130" xlink:href="Feature_Stage1_Size4_2.png"  transform="matrix(1 0 0 1 487.2495 222.04)">
	</image>
	
		<image display="inline" overflow="visible" width="148" height="132" xlink:href="Feature_Stage1_Size4_1.png"  transform="matrix(1 0 0 1 395 244.4375)">
	</image>
	
		<image display="inline" overflow="visible" width="95" height="66" xlink:href="Node_Placeholder.png"  transform="matrix(1 0 0 1 545.75 229)">
	</image>
	
		<image display="inline" overflow="visible" width="95" height="66" xlink:href="Node_Placeholder.png"  transform="matrix(1 0 0 1 635.25 270.04)">
	</image>
	
		<image display="inline" overflow="visible" width="95" height="66" xlink:href="Node_Placeholder.png"  transform="matrix(-1 0 0 1 452.75 262)">
	</image>
	
		<image display="inline" overflow="visible" width="95" height="66" xlink:href="Node_Placeholder.png"  transform="matrix(-1 0 0 1 337.75 308.4375)">
	</image>
	
		<image display="inline" overflow="visible" width="95" height="66" xlink:href="Node_Placeholder.png"  transform="matrix(-1 0 0 1 440.5 176)">
	</image>
	
		<image display="inline" overflow="visible" width="59" height="55" xlink:href="Crystal_Placeholder.png"  transform="matrix(1 0 0 1 405.2495 275.5396)">
	</image>
	
		<image display="inline" overflow="visible" width="59" height="55" xlink:href="Crystal_Placeholder.png"  transform="matrix(1 0 0 1 536.25 270.5396)">
	</image>
	
		<image display="inline" overflow="visible" width="59" height="55" xlink:href="Crystal_Placeholder.png"  transform="matrix(1 0 0 1 666.5 296.04)">
	</image>
	
		<image display="inline" overflow="visible" width="97" height="63" xlink:href="Feature_Stage1_Size3_2.png"  transform="matrix(1 0 0 1 322.2495 325.1416)">
	</image>
	
		<image display="inline" overflow="visible" width="97" height="63" xlink:href="Feature_Stage1_Size3_2.png"  transform="matrix(1 0 0 1 390.2495 310.4375)">
	</image>
	
		<image display="inline" overflow="visible" width="97" height="63" xlink:href="Feature_Stage1_Size3_2.png"  transform="matrix(1 0 0 1 431.2495 341.9375)">
	</image>
	
		<image display="inline" overflow="visible" width="97" height="63" xlink:href="Feature_Stage1_Size3_2.png"  transform="matrix(1 0 0 1 496.2495 308.4375)">
	</image>
	
		<image display="inline" overflow="visible" width="97" height="63" xlink:href="Feature_Stage1_Size3_2.png"  transform="matrix(1 0 0 1 555.25 299.1416)">
	</image>
	
		<image display="inline" overflow="visible" width="95" height="66" xlink:href="Node_Placeholder.png"  transform="matrix(1 0 0 1 464.5 332.1411)">
	</image>
	
		<image display="inline" overflow="visible" width="97" height="63" xlink:href="Feature_Stage1_Size3_2.png"  transform="matrix(1 0 0 1 538.25 336.6416)">
	</image>
	
		<image display="inline" overflow="visible" width="39" height="24" xlink:href="Feature_Stage1_Size2_1.png"  transform="matrix(1 0 0 1 632 396.04)">
	</image>
	
		<image display="inline" overflow="visible" width="35" height="25" xlink:href="Feature_Stage1_Size2_2.png"  transform="matrix(1 0 0 1 678.5 330.8369)">
	</image>
	
		<image display="inline" overflow="visible" width="59" height="55" xlink:href="Crystal_Placeholder.png"  transform="matrix(1 0 0 1 503.7495 358.1411)">
	</image>
	
		<image display="inline" overflow="visible" width="59" height="55" xlink:href="Crystal_Placeholder.png"  transform="matrix(1 0 0 1 291.5 322.4375)">
	</image>
	
		<image display="inline" overflow="visible" width="35" height="25" xlink:href="Feature_Stage1_Size2_2.png"  transform="matrix(1 0 0 1 522.75 392.9375)">
	</image>
	
		<image display="inline" overflow="visible" width="81" height="54" xlink:href="Feature_Stage1_Size1_1.png"  transform="matrix(1 0 0 1 142 401.2432)">
	</image>
	
		<image display="inline" overflow="visible" width="58" height="41" xlink:href="Feature_Stage1_Size1_2.png"  transform="matrix(1 0 0 1 794 303.04)">
	</image>
</g>
<g id="data-features-2" display="none">
	
		<image display="inline" overflow="visible" width="319" height="235" xlink:href="Feature_Stage1_Size5_2.png"  transform="matrix(1.0247 0 0 1.0247 324.8081 148.0342)">
	</image>
	
		<image display="inline" overflow="visible" width="95" height="66" xlink:href="Node_Placeholder.png"  transform="matrix(-1 0 0 1 496.25 173)">
	</image>
	
		<image display="inline" overflow="visible" width="59" height="55" xlink:href="Crystal_Placeholder.png"  transform="matrix(1 0 0 1 396.2495 201.04)">
	</image>
	
		<image display="inline" overflow="visible" width="97" height="63" xlink:href="Feature_Stage1_Size3_2.png"  transform="matrix(1 0 0 1 286.7495 287.5)">
	</image>
	
		<image display="inline" overflow="visible" width="162" height="130" xlink:href="Feature_Stage1_Size4_2.png"  transform="matrix(1 0 0 1 351.2495 230.5396)">
	</image>
	
		<image display="inline" overflow="visible" width="112" height="121" xlink:href="Mastery_Placeholder.png"  transform="matrix(1 0 0 1 497.2495 96.5396)">
	</image>
	
		<image display="inline" overflow="visible" width="97" height="63" xlink:href="Feature_Stage1_Size3_2.png"  transform="matrix(1 0 0 1 596.75 270.4375)">
	</image>
	
		<image display="inline" overflow="visible" width="59" height="55" xlink:href="Crystal_Placeholder.png"  transform="matrix(1 0 0 1 502.7495 190.9375)">
	</image>
	
		<image display="inline" overflow="visible" width="59" height="55" xlink:href="Crystal_Placeholder.png"  transform="matrix(1 0 0 1 630 260)">
	</image>
	
		<image display="inline" overflow="visible" width="148" height="132" xlink:href="Feature_Stage1_Size4_1.png"  transform="matrix(1 0 0 1 463.2495 224.5396)">
	</image>
	
		<image display="inline" overflow="visible" width="162" height="130" xlink:href="Feature_Stage1_Size4_2.png"  transform="matrix(1 0 0 1 513.25 246.04)">
	</image>
	
		<image display="inline" overflow="visible" width="148" height="132" xlink:href="Feature_Stage1_Size4_1.png"  transform="matrix(1 0 0 1 414.2495 261.04)">
	</image>
	
		<image display="inline" overflow="visible" width="95" height="66" xlink:href="Node_Placeholder.png"  transform="matrix(-1 0 0 1 426.25 237.4375)">
	</image>
	
		<image display="inline" overflow="visible" width="59" height="55" xlink:href="Crystal_Placeholder.png"  transform="matrix(1 0 0 1 335.2495 283.5396)">
	</image>
	
		<image display="inline" overflow="visible" width="97" height="63" xlink:href="Feature_Stage1_Size3_2.png"  transform="matrix(1 0 0 1 310.25 316.04)">
	</image>
	
		<image display="inline" overflow="visible" width="97" height="63" xlink:href="Feature_Stage1_Size3_2.png"  transform="matrix(1 0 0 1 378.7495 331.8369)">
	</image>
	
		<image display="inline" overflow="visible" width="97" height="63" xlink:href="Feature_Stage1_Size3_2.png"  transform="matrix(1 0 0 1 497.2495 332.4375)">
	</image>
	
		<image display="inline" overflow="visible" width="95" height="66" xlink:href="Node_Placeholder.png"  transform="matrix(-1 0 0 1 510.75 351.001)">
	</image>
	
		<image display="inline" overflow="visible" width="39" height="24" xlink:href="Feature_Stage1_Size2_1.png"  transform="matrix(1 0 0 1 483.2495 381.04)">
	</image>
	
		<image display="inline" overflow="visible" width="59" height="55" xlink:href="Crystal_Placeholder.png"  transform="matrix(1 0 0 1 468.7495 358.5396)">
	</image>
	
		<image display="inline" overflow="visible" width="95" height="66" xlink:href="Node_Placeholder.png"  transform="matrix(1 0 0 1 622.5 361.8369)">
	</image>
	
		<image display="inline" overflow="visible" width="59" height="55" xlink:href="Crystal_Placeholder.png"  transform="matrix(1 0 0 1 611.5 372.54)">
	</image>
	
		<image display="inline" overflow="visible" width="35" height="25" xlink:href="Feature_Stage1_Size2_2.png"  transform="matrix(1 0 0 1 622.5 409.041)">
	</image>
	
		<image display="inline" overflow="visible" width="81" height="54" xlink:href="Feature_Stage1_Size1_1.png"  transform="matrix(1 0 0 1 165 364.54)">
	</image>
	
		<image display="inline" overflow="visible" width="58" height="41" xlink:href="Feature_Stage1_Size1_2.png"  transform="matrix(1 0 0 1 737.2178 267)">
	</image>
	
		<image display="inline" overflow="visible" width="95" height="66" xlink:href="Node_Placeholder.png"  transform="matrix(1 0 0 1 585.5 246.04)">
	</image>
	
		<image display="inline" overflow="visible" width="95" height="66" xlink:href="Node_Placeholder.png"  transform="matrix(1 0 0 1 465.25 254.04)">
	</image>
</g>
<g id="data-features-3" display="none">
	
		<image display="inline" overflow="visible" width="319" height="235" xlink:href="Feature_Stage1_Size5_2.png"  transform="matrix(1.0247 0 0 1.0247 326.8081 144.6377)">
	</image>
	
		<image display="inline" overflow="visible" width="97" height="63" xlink:href="Feature_Stage1_Size3_2.png"  transform="matrix(1 0 0 1 295.2495 287.5)">
	</image>
	
		<image display="inline" overflow="visible" width="112" height="121" xlink:href="Mastery_Placeholder.png"  transform="matrix(-1 0 0 1 517.25 96.4375)">
	</image>
	
		<image display="inline" overflow="visible" width="59" height="55" xlink:href="Crystal_Placeholder.png"  transform="matrix(1 0 0 1 410.75 182.9375)">
	</image>
	
		<image display="inline" overflow="visible" width="148" height="132" xlink:href="Feature_Stage1_Size4_1.png"  transform="matrix(1 0 0 1 367.7495 210.4375)">
	</image>
	
		<image display="inline" overflow="visible" width="162" height="130" xlink:href="Feature_Stage1_Size4_2.png"  transform="matrix(1 0 0 1 340.7495 238.5396)">
	</image>
	
		<image display="inline" overflow="visible" width="97" height="63" xlink:href="Feature_Stage1_Size3_2.png"  transform="matrix(1 0 0 1 594.75 263.4375)">
	</image>
	
		<image display="inline" overflow="visible" width="162" height="130" xlink:href="Feature_Stage1_Size4_2.png"  transform="matrix(1 0 0 1 453.2495 218.5396)">
	</image>
	
		<image display="inline" overflow="visible" width="148" height="132" xlink:href="Feature_Stage1_Size4_1.png"  transform="matrix(1 0 0 1 407.2495 253)">
	</image>
	
		<image display="inline" overflow="visible" width="95" height="66" xlink:href="Node_Placeholder.png"  transform="matrix(1 0 0 1 614 237)">
	</image>
	
		<image display="inline" overflow="visible" width="162" height="130" xlink:href="Feature_Stage1_Size4_2.png"  transform="matrix(1 0 0 1 513.75 231.4375)">
	</image>
	
		<image display="inline" overflow="visible" width="59" height="55" xlink:href="Crystal_Placeholder.png"  transform="matrix(1 0 0 1 529.25 171.9375)">
	</image>
	
		<image display="inline" overflow="visible" width="95" height="66" xlink:href="Node_Placeholder.png"  transform="matrix(1 0 0 1 619.75 341.4375)">
	</image>
	
		<image display="inline" overflow="visible" width="95" height="66" xlink:href="Node_Placeholder.png"  transform="matrix(1 0 0 1 528.75 171.4375)">
	</image>
	
		<image display="inline" overflow="visible" width="59" height="55" xlink:href="Crystal_Placeholder.png"  transform="matrix(1 0 0 1 507.7495 236.04)">
	</image>
	
		<image display="inline" overflow="visible" width="59" height="55" xlink:href="Crystal_Placeholder.png"  transform="matrix(1 0 0 1 598.25 237.541)">
	</image>
	
		<image display="inline" overflow="visible" width="162" height="130" xlink:href="Feature_Stage1_Size4_2.png"  transform="matrix(1 0 0 1 495.2495 256.041)">
	</image>
	
		<image display="inline" overflow="visible" width="59" height="55" xlink:href="Crystal_Placeholder.png"  transform="matrix(1 0 0 1 606.5 345.54)">
	</image>
	
		<image display="inline" overflow="visible" width="95" height="66" xlink:href="Node_Placeholder.png"  transform="matrix(-1 0 0 1 396.75 263.4375)">
	</image>
	
		<image display="inline" overflow="visible" width="95" height="66" xlink:href="Node_Placeholder.png"  transform="matrix(-1 0 0 1 564.75 243.541)">
	</image>
	
		<image display="inline" overflow="visible" width="59" height="55" xlink:href="Crystal_Placeholder.png"  transform="matrix(1 0 0 1 373.7495 277.5396)">
	</image>
	
		<image display="inline" overflow="visible" width="97" height="63" xlink:href="Feature_Stage1_Size3_2.png"  transform="matrix(1 0 0 1 354.7495 310.041)">
	</image>
	
		<image display="inline" overflow="visible" width="97" height="63" xlink:href="Feature_Stage1_Size3_2.png"  transform="matrix(1 0 0 1 441.7495 341.541)">
	</image>
	
		<image display="inline" overflow="visible" width="35" height="25" xlink:href="Feature_Stage1_Size2_2.png"  transform="matrix(1 0 0 1 622.25 385.541)">
	</image>
	
		<image display="inline" overflow="visible" width="35" height="25" xlink:href="Feature_Stage1_Size2_2.png"  transform="matrix(1 0 0 1 315.7495 338)">
	</image>
	
		<image display="inline" overflow="visible" width="81" height="54" xlink:href="Feature_Stage1_Size1_1.png"  transform="matrix(1 0 0 1 180 373.54)">
	</image>
	
		<image display="inline" overflow="visible" width="58" height="41" xlink:href="Feature_Stage1_Size1_2.png"  transform="matrix(1 0 0 1 747.2178 284.5396)">
	</image>
	
		<image display="inline" overflow="visible" width="95" height="66" xlink:href="Node_Placeholder.png"  transform="matrix(1 0 0 1 451.7495 317.5396)">
	</image>
	
		<image display="inline" overflow="visible" width="59" height="55" xlink:href="Crystal_Placeholder.png"  transform="matrix(1 0 0 1 480.2495 349.04)">
	</image>
	
		<image display="inline" overflow="visible" width="39" height="24" xlink:href="Feature_Stage1_Size2_1.png"  transform="matrix(1 0 0 1 481.2495 382.4385)">
	</image>
</g>
<g id="data-features-4">
	
		<image overflow="visible" width="319" height="235" xlink:href="Feature_Stage1_Size5_2.png"  transform="matrix(1.0247 0 0 1.0247 301.8081 131.6377)">
	</image>
	
		<image overflow="visible" width="97" height="63" xlink:href="Feature_Stage1_Size3_2.png"  transform="matrix(1 0 0 1 295.2495 287.5)">
	</image>
	
		<image overflow="visible" width="112" height="121" xlink:href="Mastery_Placeholder.png"  transform="matrix(-1 0 0 1 440.25 99.4375)">
	</image>
	
		<image overflow="visible" width="59" height="55" xlink:href="Crystal_Placeholder.png"  transform="matrix(1 0 0 1 390.75 180.9375)">
	</image>
	
		<image overflow="visible" width="148" height="132" xlink:href="Feature_Stage1_Size4_1.png"  transform="matrix(1 0 0 1 339.7495 210.4375)">
	</image>
	
		<image overflow="visible" width="162" height="130" xlink:href="Feature_Stage1_Size4_2.png"  transform="matrix(1 0 0 1 383.7495 238.5396)">
	</image>
	
		<image overflow="visible" width="97" height="63" xlink:href="Feature_Stage1_Size3_2.png"  transform="matrix(1 0 0 1 594.75 263.4375)">
	</image>
	
		<image overflow="visible" width="59" height="55" xlink:href="Crystal_Placeholder.png"  transform="matrix(1 0 0 1 515.25 173.9375)">
	</image>
	
		<image overflow="visible" width="162" height="130" xlink:href="Feature_Stage1_Size4_2.png"  transform="matrix(1 0 0 1 449.2495 201.5396)">
	</image>
	
		<image overflow="visible" width="148" height="132" xlink:href="Feature_Stage1_Size4_1.png"  transform="matrix(1 0 0 1 407.2495 253)">
	</image>
	
		<image overflow="visible" width="95" height="66" xlink:href="Node_Placeholder.png"  transform="matrix(1 0 0 1 614 237)">
	</image>
	
		<image overflow="visible" width="95" height="66" xlink:href="Node_Placeholder.png"  transform="matrix(1 0 0 1 521.75 176.4375)">
	</image>
	
		<image overflow="visible" width="162" height="130" xlink:href="Feature_Stage1_Size4_2.png"  transform="matrix(1 0 0 1 521.75 228.4375)">
	</image>
	
		<image overflow="visible" width="59" height="55" xlink:href="Crystal_Placeholder.png"  transform="matrix(1 0 0 1 498.7495 246.04)">
	</image>
	
		<image overflow="visible" width="59" height="55" xlink:href="Crystal_Placeholder.png"  transform="matrix(1 0 0 1 595.25 245.541)">
	</image>
	
		<image overflow="visible" width="162" height="130" xlink:href="Feature_Stage1_Size4_2.png"  transform="matrix(1 0 0 1 495.2495 271.041)">
	</image>
	
		<image overflow="visible" width="95" height="66" xlink:href="Node_Placeholder.png"  transform="matrix(-1 0 0 1 396.75 263.4375)">
	</image>
	
		<image overflow="visible" width="95" height="66" xlink:href="Node_Placeholder.png"  transform="matrix(1 0 0 1 595.75 354.4375)">
	</image>
	
		<image overflow="visible" width="95" height="66" xlink:href="Node_Placeholder.png"  transform="matrix(-1 0 0 1 537.75 231.541)">
	</image>
	
		<image overflow="visible" width="59" height="55" xlink:href="Crystal_Placeholder.png"  transform="matrix(1 0 0 1 373.7495 277.5396)">
	</image>
	
		<image overflow="visible" width="97" height="63" xlink:href="Feature_Stage1_Size3_2.png"  transform="matrix(1 0 0 1 347.7495 310.041)">
	</image>
	
		<image overflow="visible" width="59" height="55" xlink:href="Crystal_Placeholder.png"  transform="matrix(1 0 0 1 582.5 358.54)">
	</image>
	
		<image overflow="visible" width="97" height="63" xlink:href="Feature_Stage1_Size3_2.png"  transform="matrix(1 0 0 1 441.7495 341.541)">
	</image>
	
		<image overflow="visible" width="35" height="25" xlink:href="Feature_Stage1_Size2_2.png"  transform="matrix(1 0 0 1 290.7495 338.04)">
	</image>
	
		<image overflow="visible" width="81" height="54" xlink:href="Feature_Stage1_Size1_1.png"  transform="matrix(1 0 0 1 162.2178 323.5)">
	</image>
	
		<image overflow="visible" width="58" height="41" xlink:href="Feature_Stage1_Size1_2.png"  transform="matrix(1 0 0 1 753.2178 321.9375)">
	</image>
	
		<image overflow="visible" width="95" height="66" xlink:href="Node_Placeholder.png"  transform="matrix(1 0 0 1 451.7495 317.5396)">
	</image>
	
		<image overflow="visible" width="35" height="25" xlink:href="Feature_Stage1_Size2_2.png"  transform="matrix(1 0 0 1 598.25 398.541)">
	</image>
	
		<image overflow="visible" width="59" height="55" xlink:href="Crystal_Placeholder.png"  transform="matrix(1 0 0 1 480.2495 349.04)">
	</image>
	
		<image overflow="visible" width="39" height="24" xlink:href="Feature_Stage1_Size2_1.png"  transform="matrix(1 0 0 1 492.4995 386.54)">
	</image>
</g>
<g id="size1">
</g>
<g id="island">
</g>
<g id="centre">
</g>
<g id="data-nodes" display="none">
	<circle display="inline" fill="#FF3131" stroke="#FFFFFF" stroke-miterlimit="10" cx="689.743" cy="410.513" r="13.257"/>
	<circle display="inline" fill="#FF3131" stroke="#FFFFFF" stroke-miterlimit="10" cx="663.228" cy="297.795" r="13.257"/>
	<circle display="inline" fill="#FF3131" stroke="#FFFFFF" stroke-miterlimit="10" cx="501.217" cy="410.513" r="13.257"/>
	<circle display="inline" fill="#FF3131" stroke="#FFFFFF" stroke-miterlimit="10" cx="588.374" cy="364.485" r="13.257"/>
	<circle display="inline" fill="#FF3131" stroke="#FFFFFF" stroke-miterlimit="10" cx="423.704" cy="356.485" r="13.257"/>
	<circle display="inline" fill="#FF3131" stroke="#FFFFFF" stroke-miterlimit="10" cx="321.742" cy="357.485" r="13.257"/>
</g>
<g id="data-mastery" display="none">
	<circle display="inline" fill="#FF31FF" stroke="#FFFFFF" stroke-miterlimit="10" cx="514.475" cy="271.281" r="13.257"/>
</g>
<g id="data-label" display="none">
	<path display="inline" fill="none" stroke="#000000" stroke-miterlimit="10" d="M806.969,638.317"/>
	<path display="inline" fill="none" stroke="#000000" stroke-miterlimit="10" d="M593.791,625.14"/>
	<line display="inline" fill="none" stroke="#000000" stroke-miterlimit="10" x1="487.96" y1="529.903" x2="641.281" y2="534.093"/>
</g>
<g id="old-data-features" display="none">
	<circle display="inline" fill="#EFFF00" cx="532.009" cy="333" r="41.009"/>
	<circle display="inline" fill="#EFFF00" cx="584.588" cy="345.009" r="41.009"/>
	<circle display="inline" fill="#EFFF00" cx="436.588" cy="333" r="41.009"/>
	<circle display="inline" fill="#EFFF00" cx="599.646" cy="304" r="32.951"/>
	<circle display="inline" fill="#EFFF00" cx="466.609" cy="360.174" r="34.609"/>
	<circle display="inline" fill="#EFFF00" cx="382.917" cy="325.564" r="34.609"/>
	<circle display="inline" fill="#EFFF00" cx="348.309" cy="326.6" r="34.609"/>
	<circle display="inline" fill="#EFFF00" cx="452.135" cy="298.391" r="34.609"/>
	<circle display="inline" fill="#EFFF00" cx="486.744" cy="314.391" r="34.609"/>
	<circle display="inline" fill="#EFFF00" cx="411.744" cy="291.99" r="34.609"/>
	<circle display="inline" fill="#EFFF00" cx="486.744" cy="271.049" r="34.609"/>
	<circle display="inline" fill="#EFFF00" cx="535.826" cy="279.781" r="34.609"/>
	<circle display="inline" fill="#EFFF00" cx="570.436" cy="263.781" r="34.609"/>
	<circle display="inline" fill="#EFFF00" cx="619.197" cy="290.955" r="34.609"/>
	<circle display="inline" fill="#EFFF00" cx="632.598" cy="325.564" r="34.609"/>
	<circle display="inline" fill="#EFFF00" cx="667.206" cy="327.555" r="16.827"/>
	<circle display="inline" fill="#EFFF00" cx="563.379" cy="298.391" r="34.609"/>
	<circle display="inline" fill="#EFFF00" cx="452.135" cy="278.609" r="34.609"/>
	<circle display="inline" fill="#EFFF00" cx="466.609" cy="251.256" r="34.609"/>
</g>
</svg>
