<?xml version="1.0" encoding="utf-8"?>
<!-- Generator: Adobe Illustrator 13.0.2, SVG Export Plug-In . SVG Version: 6.00 Build 14948)  -->
<!DOCTYPE svg PUBLIC "-//W3C//DTD SVG 1.1//EN" "http://www.w3.org/Graphics/SVG/1.1/DTD/svg11.dtd">
<svg version="1.1" xmlns="http://www.w3.org/2000/svg" xmlns:xlink="http://www.w3.org/1999/xlink" x="0px" y="0px" width="500px"
	 height="500px" viewBox="0 0 500 500" enable-background="new 0 0 500 500" xml:space="preserve">
<g id="Layer_2">
	<path fill="none" stroke="#000000" d="M74.5,282.5c0,0-0.5,72.5,47.5,81.25s96.75,2.75,124.5-32.25
		s124.332-153.232,108.791-195.241S293.046,95.12,249.773,94.935S186.261,122.371,186.5,149.5s134.001,208.666,170.334,213.333
		s71,19.667,89.333-21.333s8.979-63.279-17.667-85.333s-246.566-29.739-290.95-26.37S68.5,270.25,68.5,270.25"/>
</g>
<g id="Layer_1">
	<g id="guide">
		<line fill="none" stroke="#BE1E2D" stroke-miterlimit="10" x1="250" y1="0" x2="250" y2="500"/>
		<line fill="none" stroke="#BE1E2D" stroke-miterlimit="10" x1="0" y1="250" x2="500" y2="250"/>
	</g>
	<g id="path0-tmp" display="none">
		<circle display="inline" fill="#F1F2F2" stroke="#006838" stroke-miterlimit="10" cx="224" cy="234" r="9"/>
		<circle display="inline" fill="#F1F2F2" stroke="#006838" stroke-miterlimit="10" cx="242" cy="198.448" r="9"/>
		<circle display="inline" fill="#F1F2F2" stroke="#006838" stroke-miterlimit="10" cx="286" cy="169" r="9"/>
		<circle display="inline" fill="#F1F2F2" stroke="#006838" stroke-miterlimit="10" cx="348" cy="198.448" r="9"/>
		<circle display="inline" fill="#F1F2F2" stroke="#006838" stroke-miterlimit="10" cx="381.928" cy="303" r="9"/>
		<circle display="inline" fill="#F1F2F2" stroke="#006838" stroke-miterlimit="10" cx="304" cy="408" r="9"/>
	</g>
	<g id="Layer_6">
		<line fill="none" stroke="#006838" stroke-miterlimit="10" x1="290" y1="361" x2="454" y2="48"/>
	</g>
	<g id="path0">
		<circle fill="#F1F2F2" stroke="#006838" stroke-miterlimit="10" cx="74" cy="283" r="9"/>
		<circle fill="#F1F2F2" stroke="#006838" stroke-miterlimit="10" cx="79" cy="316.666" r="9"/>
		<circle fill="#F1F2F2" stroke="#006838" stroke-miterlimit="10" cx="93.667" cy="348" r="9"/>
		<circle fill="#F1F2F2" stroke="#006838" stroke-miterlimit="10" cx="131.333" cy="364.333" r="9"/>
		<circle fill="#F1F2F2" stroke="#006838" stroke-miterlimit="10" cx="172.333" cy="365" r="9"/>
		<circle fill="#F1F2F2" stroke="#006838" stroke-miterlimit="10" cx="213.666" cy="355.333" r="9"/>
		<circle fill="#F1F2F2" stroke="#006838" stroke-miterlimit="10" cx="243.667" cy="331" r="9"/>
		<circle fill="#F1F2F2" stroke="#006838" stroke-miterlimit="10" cx="269" cy="300.667" r="9"/>
		<circle fill="#F1F2F2" stroke="#006838" stroke-miterlimit="10" cx="304.667" cy="251.333" r="9"/>
		<circle fill="#F1F2F2" stroke="#006838" stroke-miterlimit="10" cx="333" cy="209" r="9"/>
		<circle fill="#F1F2F2" stroke="#006838" stroke-miterlimit="10" cx="353" cy="165" r="9"/>
		<circle fill="#F1F2F2" stroke="#006838" stroke-miterlimit="10" cx="341.001" cy="115.667" r="9"/>
		<circle fill="#F1F2F2" stroke="#006838" stroke-miterlimit="10" cx="306.001" cy="98.333" r="9"/>
		<circle fill="#F1F2F2" stroke="#006838" stroke-miterlimit="10" cx="262.335" cy="94" r="9"/>
		<circle fill="#F1F2F2" stroke="#006838" stroke-miterlimit="10" cx="222.335" cy="99" r="9"/>
		<circle fill="#F1F2F2" stroke="#006838" stroke-miterlimit="10" cx="189.334" cy="137.333" r="9"/>
		<circle fill="#F1F2F2" stroke="#006838" stroke-miterlimit="10" cx="198.667" cy="178.666" r="9"/>
		<circle fill="#F1F2F2" stroke="#006838" stroke-miterlimit="10" cx="223" cy="215" r="9"/>
		<circle fill="#F1F2F2" stroke="#006838" stroke-miterlimit="10" cx="249" cy="250" r="9"/>
		<circle fill="#F1F2F2" stroke="#006838" stroke-miterlimit="10" cx="273" cy="280.333" r="9"/>
		<circle fill="#F1F2F2" stroke="#006838" stroke-miterlimit="10" cx="297.333" cy="312.667" r="9.001"/>
		<circle fill="#F1F2F2" stroke="#006838" stroke-miterlimit="10" cx="325" cy="340.334" r="9.001"/>
		<circle fill="#F1F2F2" stroke="#006838" stroke-miterlimit="10" cx="104.668" cy="239" r="9.001"/>
		<circle fill="#F1F2F2" stroke="#006838" stroke-miterlimit="10" cx="353.667" cy="360.001" r="9.001"/>
		<circle fill="#F1F2F2" stroke="#006838" stroke-miterlimit="10" cx="390.667" cy="367.001" r="9.001"/>
		<circle fill="#F1F2F2" stroke="#006838" stroke-miterlimit="10" cx="428.667" cy="358.334" r="9.001"/>
		<circle fill="#F1F2F2" stroke="#006838" stroke-miterlimit="10" cx="450.334" cy="327.667" r="9.001"/>
		<circle fill="#F1F2F2" stroke="#006838" stroke-miterlimit="10" cx="451.334" cy="283.001" r="9.001"/>
		<circle fill="#F1F2F2" stroke="#006838" stroke-miterlimit="10" cx="418.001" cy="250.001" r="9.001"/>
		<circle fill="#F1F2F2" stroke="#006838" stroke-miterlimit="10" cx="375.334" cy="240.667" r="9.001"/>
		<circle fill="#F1F2F2" stroke="#006838" stroke-miterlimit="10" cx="334.001" cy="236.334" r="9.001"/>
		<circle fill="#F1F2F2" stroke="#006838" stroke-miterlimit="10" cx="258.335" cy="232" r="9.001"/>
		<circle fill="#F1F2F2" stroke="#006838" stroke-miterlimit="10" cx="187.668" cy="229.667" r="9.001"/>
		<circle fill="#F1F2F2" stroke="#006838" stroke-miterlimit="10" cx="144.668" cy="229.667" r="9.001"/>
	</g>
	<g id="path1">
	</g>
	<g id="path2">
	</g>
</g>
</svg>
