<?xml version="1.0" encoding="utf-8"?>
<!-- Generator: Adobe Illustrator 15.0.0, SVG Export Plug-In . SVG Version: 6.00 Build 0)  -->
<!DOCTYPE svg PUBLIC "-//W3C//DTD SVG 1.1//EN" "http://www.w3.org/Graphics/SVG/1.1/DTD/svg11.dtd">
<svg version="1.1" xmlns="http://www.w3.org/2000/svg" xmlns:xlink="http://www.w3.org/1999/xlink" x="0px" y="0px" width="500px"
	 height="500px" viewBox="0 0 500 500" enable-background="new 0 0 500 500" xml:space="preserve">
<g id="guide">
	<line fill="none" stroke="#BE1E2D" stroke-miterlimit="10" x1="250" y1="0" x2="250" y2="500"/>
	<line fill="none" stroke="#BE1E2D" stroke-miterlimit="10" x1="0" y1="250" x2="500" y2="250"/>
</g>
<g id="path0-tmp" display="none">
	<circle display="inline" fill="#F1F2F2" stroke="#006838" stroke-miterlimit="10" cx="224" cy="234" r="9"/>
	<circle display="inline" fill="#F1F2F2" stroke="#006838" stroke-miterlimit="10" cx="242" cy="198.448" r="9"/>
	<circle display="inline" fill="#F1F2F2" stroke="#006838" stroke-miterlimit="10" cx="286" cy="169" r="9"/>
	<circle display="inline" fill="#F1F2F2" stroke="#006838" stroke-miterlimit="10" cx="348" cy="198.448" r="9"/>
	<circle display="inline" fill="#F1F2F2" stroke="#006838" stroke-miterlimit="10" cx="381.928" cy="303" r="9"/>
	<circle display="inline" fill="#F1F2F2" stroke="#006838" stroke-miterlimit="10" cx="304" cy="408" r="9"/>
</g>
<g id="path0">
	<circle fill="#F1F2F2" stroke="#006838" stroke-miterlimit="10" cx="184" cy="193" r="9"/>
	<circle fill="#F1F2F2" stroke="#006838" stroke-miterlimit="10" cx="215" cy="230" r="9"/>
	<circle fill="#F1F2F2" stroke="#006838" stroke-miterlimit="10" cx="238" cy="256" r="9"/>
	<circle fill="#F1F2F2" stroke="#006838" stroke-miterlimit="10" cx="263" cy="307" r="9"/>
	<circle fill="#F1F2F2" stroke="#006838" stroke-miterlimit="10" cx="290" cy="361" r="9"/>
	<circle fill="#F1F2F2" stroke="#006838" stroke-miterlimit="10" cx="310" cy="302" r="9"/>
	<circle fill="#F1F2F2" stroke="#006838" stroke-miterlimit="10" cx="337" cy="256" r="9"/>
	<circle fill="#F1F2F2" stroke="#006838" stroke-miterlimit="10" cx="374" cy="202" r="9"/>
	<circle fill="#F1F2F2" stroke="#006838" stroke-miterlimit="10" cx="406" cy="146" r="9"/>
	<circle fill="#F1F2F2" stroke="#006838" stroke-miterlimit="10" cx="454" cy="69" r="9"/>
</g>
<g id="path1">
</g>
<g id="path2">
</g>
</svg>
